<svg xmlns="http://www.w3.org/2000/svg" xmlns:xlink="http://www.w3.org/1999/xlink" version="1.1" id="Capa_1" x="0px" y="0px" viewBox="0 0 492.27 204.27" style="enable-background:new 0 0 492.27 204.27;" xml:space="preserve"><style type="text/css">
	.st0{fill:#202020;}
	.st1{fill:#1E1E1C;}
</style><g><g><g><g><g><path class="st0" d="M102.75,43.13l-18.51,8.11c0-10.81-7.97-18.51-20.4-18.51c-9.87,0-16.89,4.46-16.89,11.62       c0,21.35,57.01,3.51,57.01,44.04c0,19.59-17.29,30.53-38.91,30.53c-20.53,0-38.1-10-41.48-29.32l19.46-8.92       c0,12.7,8.65,20.4,22.02,20.4c10.13,0,17.97-4.59,17.97-12.03c0-20.81-57.01-3.38-57.01-43.23c0-18.37,16.62-30.94,37.83-30.94       C85.86,14.89,100.05,27.32,102.75,43.13z"/><path class="st0" d="M179.62,87.71h-47.83c1.62,11.21,7.84,15,16.48,15c8.37,0,13.51-3.38,17.02-10.94l13.92,12.83       c-7.16,9.59-18.24,14.32-31.61,14.32c-23.1,0-36.88-15.4-36.88-36.88c0-22.16,15-38.1,36.07-38.1       c20.13,0,33.37,14.86,33.37,36.34C180.16,82.77,179.98,85.25,179.62,87.71z M131.92,74.21h27.15       c0.14-8.24-4.19-14.05-12.83-14.05C138.95,60.15,133.55,64.34,131.92,74.21z"/><path class="st0" d="M257.15,46.64l-27.7,70.25h-20.81l-28.37-70.25h21.89l16.89,46.88l16.89-46.88H257.15z"/><path class="st0" d="M283.05,17.6v19.05h-19.86V17.6H283.05z M283.05,46.64v70.25h-19.86V46.64L283.05,46.64z"/><path class="st0" d="M316.67,17.6v99.3h-19.86V17.6H316.67z"/><path class="st0" d="M350.61,17.6v99.3h-19.86V17.6H350.61z"/><path class="st0" d="M410.35,116.9l-2.84-7.7c-4.46,5.81-12.56,9.59-21.75,9.59c-14.32,0-24.32-7.7-24.32-20.81       c0-12.16,9.32-19.32,23.91-21.89c17.97-3.11,20.94-3.11,20.94-8.51c0-5.13-4.32-8.24-11.89-8.24       c-9.19,0-14.59,5.67-14.59,14.05l-17.43-6.76c2.97-13.1,15.13-22.56,32.02-22.56c18.92,0,31.21,8.92,31.21,25.4v32.56       l2.57,14.86H410.35z M406.3,88.93v-4.05c-2.03,1.35-5.54,2.03-15.27,3.78c-5.4,0.95-8.91,3.38-8.91,8.11       c0,4.19,2.97,7.43,8.24,7.43C401.57,104.2,406.3,97.58,406.3,88.93z"/></g><path class="st0" d="M464.02,104.5c0-7.09-5.75-12.84-12.84-12.84c-7.09,0-12.84,5.75-12.84,12.84      c0,7.09,5.75,12.84,12.84,12.84C458.27,117.35,464.02,111.6,464.02,104.5L464.02,104.5z"/></g><g><polygon class="st0" points="463.06,127.93 439.35,127.93 444.99,150.83 468.7,150.83     "/><path class="st0" d="M152.07,141.64c6.67-0.21,13.1,2.51,17.6,7.45c0.51,0.51,2.43,2.73,2.43,2.73l11.28-13.45      c-14-10.45-22.58-13-36.08-13c-15.75,0-28.73,10.43-29.31,25.46h21.41C140.62,144.55,145.31,141.64,152.07,141.64z"/><polygon class="st0" points="229.61,127.93 208.61,127.93 205.07,150.83 244.35,150.83     "/><polygon class="st0" points="283.05,127.93 263.01,127.93 268.72,150.83 288.76,150.83     "/><polygon class="st0" points="316.67,127.93 296.63,127.93 302.34,150.83 322.38,150.83     "/><polygon class="st0" points="350.61,127.93 330.56,127.93 336.28,150.83 356.32,150.83     "/><path class="st0" d="M64.05,143.89c-7.58,0-13.88,2.56-16.62,6.94h-22c3.12-16.04,19.1-24.92,38.63-24.92      c18.98,0,35.41,8.5,40.64,24.92H81.48C77.61,146.42,71.62,143.89,64.05,143.89z"/><path class="st0" d="M387.23,148.24c-1.05-4.23,1.13-7.51,6.45-7.51c8.87,0,14.71,4.13,17.89,10.1h20.26l-2.33-7.94l-0.8-14.99      h-18.02l-0.93,7.78c-6.6-6.22-15.33-9.68-24.39-9.69c-14.47,0-22.63,7.78-19.33,21.02c0.33,1.31,0.77,2.59,1.3,3.82h20.99      C387.84,150.03,387.46,149.16,387.23,148.24z"/></g></g></g><g><path class="st1" d="M297.76,175.78c0,3.56-2.69,5.44-5.87,5.44h-5.49v7.77h-2.13v-18.67h7.44    C295.52,170.32,297.76,172.53,297.76,175.78z M295.62,175.78c0-2.06-1.35-3.53-3.81-3.53h-5.41v7.04h5.34    C294.12,179.29,295.62,177.92,295.62,175.78z"/><path class="st1" d="M309.29,188.99l-0.58-1.8c-1.09,1.55-2.9,2.18-4.8,2.18c-2.59,0-4.42-1.5-4.42-3.73s1.73-3.51,4.29-3.96    c4.27-0.76,4.85-0.97,4.85-2.39c0-1.6-1.55-2.19-3.25-2.19c-2.03,0-3.66,1.07-3.66,3.25l-1.91-0.76c0.2-2.52,2.59-4.22,5.56-4.22    c3.3,0,5.31,1.55,5.31,4.37v6.83l0.41,2.41H309.29z M308.63,183.66v-1.55c-0.43,0.43-1.27,0.53-4.27,1.14    c-1.5,0.28-2.64,0.84-2.64,2.29c0,1.22,0.97,2.16,2.62,2.16C307.06,187.7,308.63,185.95,308.63,183.66z"/><path class="st1" d="M324.67,179.26l-1.98,0.74c-0.13-1.75-1.35-2.87-3.46-2.87c-1.93,0-3.05,0.91-3.05,2.11    c0,3.28,8.66,1.02,8.66,6.15c0,2.49-2.08,3.99-5.41,3.99c-3.43,0-5.49-1.78-5.87-4.12l2.08-0.86c0.08,2.03,1.52,3.23,3.79,3.23    c1.8,0,3.15-0.64,3.15-2.08c0-3.25-8.56-0.89-8.56-6.17c0-2.31,2.39-3.99,5.21-3.99C322.25,175.38,324.39,176.95,324.67,179.26z"/><path class="st1" d="M338.14,179.26l-1.98,0.74c-0.13-1.75-1.35-2.87-3.46-2.87c-1.93,0-3.05,0.91-3.05,2.11    c0,3.28,8.66,1.02,8.66,6.15c0,2.49-2.08,3.99-5.41,3.99c-3.43,0-5.49-1.78-5.87-4.12l2.08-0.86c0.08,2.03,1.52,3.23,3.79,3.23    c1.8,0,3.15-0.64,3.15-2.08c0-3.25-8.56-0.89-8.56-6.17c0-2.31,2.39-3.99,5.21-3.99C335.72,175.38,337.86,176.95,338.14,179.26z"/><path class="st1" d="M343.75,170.32v2.54h-2.57v-2.54H343.75z M343.5,175.78v13.21h-2.08v-13.21H343.5z"/><path class="st1" d="M360.55,182.39c0,4.14-3.1,6.99-7.04,6.99c-3.94,0-7.01-2.85-7.01-6.99c0-4.17,3.07-7.01,7.01-7.01    C357.45,175.38,360.55,178.22,360.55,182.39z M348.63,182.39c0,3.05,2.08,5.06,4.88,5.06c2.87,0,4.9-2.01,4.9-5.06    c0-3.07-2.03-5.08-4.9-5.08C350.66,177.31,348.63,179.31,348.63,182.39z"/><path class="st1" d="M375.13,180.74v8.26h-2.08v-7.95c0-2.46-1.17-3.76-3.38-3.76c-2.52,0-4.04,1.63-4.04,4.55v7.16h-2.08v-13.21    h2.08v1.88c0.94-1.5,2.39-2.26,4.42-2.26C373.28,175.4,375.13,177.41,375.13,180.74z"/><path class="st1" d="M391.83,177.64h-4.02v11.36h-2.08v-11.36h-2.34v-1.85h2.34v-1.63c0-2.49,1.57-4.24,4.09-4.24    c0.53,0,1.27,0.08,1.8,0.2v1.85c-0.41-0.13-0.97-0.18-1.42-0.18c-1.47,0-2.39,0.69-2.39,2.41v1.57h4.02V177.64z"/><path class="st1" d="M407.66,182.39c0,4.14-3.1,6.99-7.04,6.99s-7.01-2.85-7.01-6.99c0-4.17,3.07-7.01,7.01-7.01    S407.66,178.22,407.66,182.39z M395.74,182.39c0,3.05,2.08,5.06,4.88,5.06c2.87,0,4.9-2.01,4.9-5.06c0-3.07-2.03-5.08-4.9-5.08    C397.77,177.31,395.74,179.31,395.74,182.39z"/><path class="st1" d="M417.93,175.63v2.16c-0.33-0.08-0.69-0.13-1.04-0.13c-2.39,0-4.14,1.27-4.14,4.93v6.4h-2.08v-13.21h2.08v2.29    c1.02-1.96,2.92-2.52,4.37-2.52C417.42,175.55,417.62,175.58,417.93,175.63z"/><path class="st1" d="M441.05,170.32l-7.16,10.9v7.77h-2.11v-7.72l-7.09-10.95h2.41l5.72,9.02l5.79-9.02H441.05z"/><path class="st1" d="M454.49,182.39c0,4.14-3.1,6.99-7.04,6.99c-3.94,0-7.01-2.85-7.01-6.99c0-4.17,3.07-7.01,7.01-7.01    C451.39,175.38,454.49,178.22,454.49,182.39z M442.57,182.39c0,3.05,2.08,5.06,4.88,5.06c2.87,0,4.9-2.01,4.9-5.06    c0-3.07-2.03-5.08-4.9-5.08C444.61,177.31,442.57,179.31,442.57,182.39z"/><path class="st1" d="M468.7,175.78v13.21h-2.08v-1.88c-0.94,1.6-2.46,2.26-4.32,2.26c-3.1,0-4.93-1.93-4.93-5.11v-8.49h2.08v8.18    c0,2.39,1.09,3.58,3.25,3.58c2.44,0,3.91-1.65,3.91-4.55v-7.22H468.7z"/></g></g></svg>