<?xml version="1.0" encoding="utf-8"?>
<!-- Generator: Adobe Illustrator 16.0.0, SVG Export Plug-In . SVG Version: 6.00 Build 0)  -->
<!DOCTYPE svg PUBLIC "-//W3C//DTD SVG 1.1//EN" "http://www.w3.org/Graphics/SVG/1.1/DTD/svg11.dtd">
<svg version="1.1" id="Capa_1" xmlns="http://www.w3.org/2000/svg" xmlns:xlink="http://www.w3.org/1999/xlink" x="0px" y="0px"
	 width="113px" height="98px" viewBox="0 0 113 98" enable-background="new 0 0 113 98" xml:space="preserve">
<g>
	<path d="M66.415,21.178c-0.072,5.265-3.517,8.588-7.698,11.304c2.656-2.31,6.176-5.271,6.231-9.171
		c-0.636,3.9-4.057,6.508-6.99,8.633c2.533-2.329,5.993-5.501,5.924-9.315c-0.764,4.08-3.542,6.422-6.688,8.83
		c2.615-2.479,5.656-5.495,5.505-9.417c-0.112,3.802-3.451,6.833-6.111,9.043c2.63-2.63,5.343-5.576,5.09-9.571
		c-0.026-1.873-0.561-3.391-1.542-4.51c-1.014-1.138-2.302-1.696-3.877-1.722c-1.875,0.026-3.29,0.626-4.276,1.771
		c-0.991,1.168-1.47,2.683-1.47,4.586c0,1.089,0.181,2.155,0.532,3.139c0.354,0.984,0.99,1.945,1.925,2.883l10.283,10.136
		c1.162,1.138,2.096,2.427,2.809,3.877c0.688,1.437,1.065,3.004,1.112,4.677c0.052,3.32-0.86,6.052-2.707,8.256
		c-1.879,2.205-4.634,3.343-8.308,3.448c-2.05,0-3.9-0.426-5.543-1.267c-1.647-0.81-2.962-2.056-3.973-3.707
		c-0.99-1.64-1.518-3.687-1.577-6.14c-0.043-5.353,3.369-8.892,7.625-11.657c-2.833,2.463-5.724,5.622-5.779,9.624
		c0.391-3.976,3.526-6.885,6.562-9.089c-2.762,2.536-5.565,5.802-5.494,9.801c0.26-3.972,3.293-6.993,6.253-9.299
		c-2.709,2.584-5.439,5.904-5.295,9.906c0.135-4.002,3.074-7.118,5.954-9.522c-2.574,2.578-5.369,6.026-5.062,9.929
		c0.072,2.234,0.657,4.054,1.817,5.422c1.178,1.364,2.817,2.08,4.914,2.096c1.65,0,3.048-0.558,4.153-1.696
		c1.115-1.138,1.682-2.834,1.682-5.212c-0.088-1.447-0.465-2.788-1.17-4.035c-0.711-1.233-1.447-2.276-2.204-3.004l-9.247-9.099
		c-1.158-1.142-2.1-2.454-2.809-3.946c-0.685-1.499-1.065-3.188-1.118-5.062c0-3.168,0.919-5.7,2.769-7.599
		c1.842-1.903,4.353-2.896,7.518-2.933c3.067,0.037,5.5,0.882,7.34,2.582C65.323,15.812,66.313,18.17,66.415,21.178z"/>
	<path d="M111.286,74.42h-1.004l-0.564-1.316h-2.273l-0.554,1.316h-0.905l2.228-4.993l-0.239-0.597h0.983L111.286,74.42z
		 M109.462,72.433l-0.834-2.066l-0.892,2.066H109.462z M105.786,73.655l-0.289,0.765h-2.851v-5.589h0.932v4.824H105.786z
		 M102.115,73.655l-0.289,0.765h-2.861v-5.589h0.939v4.824H102.115z M97.43,74.42H96.5v-5.589h0.931V74.42z M95.824,68.831
		l-2.28,5.559l-0.842,0.135l-2.043-5.694h1.039l1.506,4.467l1.758-4.467H95.824z M90.396,73.655l-0.332,0.765h-3.277v-5.589h3.438
		l-0.24,0.735h-2.257v1.659h2.092l-0.236,0.728h-1.856v1.702H90.396z M85.635,72.528c0,0.62-0.213,1.105-0.643,1.492
		c-0.43,0.354-0.984,0.544-1.659,0.544c-0.309,0-0.624-0.026-0.915-0.089c-0.306-0.085-0.574-0.15-0.807-0.239l-0.174-1.233
		c0.249,0.204,0.531,0.374,0.821,0.489c0.288,0.141,0.649,0.19,1.01,0.216c0.354-0.026,0.649-0.125,0.884-0.321
		c0.263-0.18,0.385-0.419,0.411-0.764c-0.026-0.213-0.075-0.384-0.2-0.532c-0.115-0.138-0.262-0.256-0.406-0.383
		c-0.142-0.096-0.28-0.165-0.384-0.22l-0.65-0.403c-0.475-0.282-0.81-0.574-1.023-0.889c-0.213-0.308-0.315-0.65-0.315-0.984
		c0.027-0.643,0.233-1.151,0.674-1.509c0.425-0.354,1.01-0.558,1.724-0.577c0.315,0.02,0.624,0.076,0.912,0.164
		c0.292,0.102,0.506,0.19,0.653,0.295v1.122c-0.189-0.191-0.406-0.354-0.676-0.505c-0.265-0.111-0.547-0.19-0.889-0.19
		c-0.361,0-0.672,0.079-0.931,0.262c-0.263,0.197-0.407,0.466-0.407,0.819c0,0.292,0.119,0.529,0.332,0.696
		c0.199,0.19,0.456,0.364,0.737,0.524l0.649,0.41c0.2,0.122,0.387,0.239,0.584,0.413c0.194,0.174,0.358,0.351,0.476,0.594
		C85.57,71.953,85.635,72.223,85.635,72.528z M78.419,73.655l-0.347,0.765h-3.26v-5.589h3.434l-0.239,0.735h-2.253v1.659h2.086
		l-0.247,0.728h-1.84v1.702H78.419z M73.63,71.639c-0.023,0.889-0.282,1.591-0.836,2.119c-0.554,0.518-1.322,0.781-2.33,0.807
		c-0.357-0.026-0.698-0.039-0.99-0.089c-0.305-0.055-0.567-0.121-0.811-0.2v-5.379c0.263-0.039,0.532-0.091,0.811-0.125
		c0.269-0.033,0.606-0.033,1.017-0.033c1.007,0,1.775,0.263,2.319,0.767C73.348,70.032,73.607,70.75,73.63,71.639z M72.653,71.665
		c0-0.702-0.2-1.234-0.603-1.633c-0.405-0.388-1.011-0.604-1.824-0.604h-0.604v4.28c0.145,0.023,0.289,0.069,0.407,0.089
		c0.148,0.029,0.289,0.052,0.436,0.052c0.477,0,0.886-0.092,1.198-0.315c0.341-0.184,0.578-0.482,0.751-0.794
		C72.574,72.41,72.653,72.049,72.653,71.665z M59.471,68.857l-0.292,0.764h-1.588v4.821H56.66v-4.821h-1.539v-0.764H59.471z
		 M54.371,74.443h-0.479l-3.338-3.933v3.933h-0.83v-4.966l-0.535-0.62h1.197l3.149,3.746v-3.746h0.837V74.443z M9.23,74.443H8.076
		L7.458,72.74H4.835l-0.6,1.703H3.23l2.497-6.596l-0.272-0.604h1.157L9.23,74.443z M7.164,71.934l-1.03-2.841l-1.01,2.841H7.164z
		 M34.492,74.443H33.48l-0.548-1.315h-2.279l-0.579,1.315h-0.888l2.236-4.989l-0.268-0.597h1.01L34.492,74.443z M32.669,72.452
		l-0.843-2.06l-0.913,2.06H32.669z M65.25,71.639c-0.016,0.889-0.285,1.591-0.787,2.119c-0.505,0.518-1.177,0.781-2.021,0.807
		c-0.839-0.026-1.512-0.289-2.017-0.807c-0.505-0.528-0.768-1.229-0.768-2.119c0-0.554,0.121-1.059,0.354-1.516
		c0.243-0.433,0.584-0.768,0.998-1.003c0.423-0.262,0.905-0.38,1.433-0.38c0.551,0,1.033,0.118,1.466,0.38
		c0.41,0.236,0.742,0.571,0.984,1.003C65.125,70.58,65.25,71.084,65.25,71.639z M64.239,71.639c0-0.626-0.144-1.128-0.452-1.538
		c-0.338-0.384-0.768-0.594-1.345-0.594c-0.548,0-1.01,0.21-1.316,0.594c-0.32,0.41-0.488,0.912-0.488,1.538
		c0,0.649,0.167,1.154,0.488,1.535c0.306,0.41,0.768,0.604,1.316,0.623c0.577-0.02,1.033-0.213,1.345-0.623
		C64.095,72.793,64.239,72.288,64.239,71.639z M48.61,73.682l-0.338,0.761h-3.264v-5.585h3.438l-0.236,0.741h-2.263v1.653h2.089
		l-0.239,0.722h-1.85v1.709H48.61z M43.372,74.443h-0.928v-5.585h0.928V74.443z M40.777,74.443h-0.954v-4.05l-1.894,2.906
		l-1.764-2.906v4.05h-0.83V69.33l-0.39-0.472h1.341l1.879,2.925l1.87-2.925h0.741V74.443z M18.667,68.857v3.457
		c0,0.41-0.069,0.79-0.239,1.121c-0.171,0.342-0.407,0.63-0.742,0.821c-0.338,0.187-0.741,0.308-1.25,0.308
		c-0.764,0-1.348-0.19-1.732-0.564c-0.41-0.394-0.6-0.948-0.6-1.66v-3.483h0.934v3.404c0,0.462,0.118,0.843,0.367,1.125
		c0.236,0.295,0.572,0.439,1.031,0.439c0.429-0.029,0.787-0.144,1.007-0.439c0.242-0.259,0.334-0.594,0.334-1.026v-3.503H18.667z
		 M13.501,68.857l-1.962,3.287v2.299h-0.938v-2.365l-1.831-3.22h1.06l1.367,2.453l1.417-2.453H13.501z M29.95,68.857l-0.285,0.764
		h-1.581v4.821h-0.942v-4.821h-1.539v-0.764H29.95z M24.862,74.443h-0.485l-3.333-3.933v3.933h-0.839v-4.966l-0.532-0.62h1.207
		l3.14,3.746v-3.746h0.842V74.443z"/>
	<path fill-rule="evenodd" clip-rule="evenodd" d="M45.065,34.79c-0.006,2.225-0.456,4.175-1.342,5.825
		c-0.876,1.657-2.105,2.94-3.7,3.858c-1.587,0.912-3.449,1.371-5.592,1.394c-2.142-0.023-4.011-0.481-5.606-1.394
		c-1.581-0.918-2.817-2.201-3.7-3.858c-0.878-1.65-1.321-3.601-1.341-5.825c0.042-3.385,1.017-6.067,2.916-8.039
		c1.902-1.985,4.48-2.988,7.731-3.028c3.23,0.04,5.803,1.043,7.711,3.028C44.047,28.723,45.028,31.405,45.065,34.79 M40.276,34.79
		c-0.01-2.21-0.521-3.972-1.539-5.274c-1.016-1.312-2.453-1.981-4.306-2.004c-1.883,0.023-3.323,0.692-4.32,2.004
		c-1.018,1.302-1.525,3.063-1.535,5.274c0.01,2.211,0.518,3.969,1.535,5.274c0.997,1.306,2.437,1.975,4.32,2.008
		c1.853-0.033,3.29-0.702,4.306-2.008C39.754,38.759,40.266,37.001,40.276,34.79"/>
	<path fill-rule="evenodd" clip-rule="evenodd" d="M111.279,34.79c-0.013,2.225-0.456,4.175-1.338,5.825
		c-0.886,1.657-2.116,2.936-3.713,3.858c-1.587,0.912-3.444,1.38-5.596,1.394c-2.132-0.013-4.004-0.481-5.588-1.394
		c-1.595-0.922-2.828-2.201-3.708-3.858c-0.885-1.65-1.338-3.601-1.338-5.825c0.042-3.385,1.011-6.067,2.906-8.039
		c1.906-1.985,4.481-2.988,7.728-3.028c3.241,0.04,5.81,1.043,7.718,3.028C110.252,28.723,111.239,31.405,111.279,34.79
		 M106.491,34.79c-0.014-2.21-0.525-3.972-1.542-5.274c-1.016-1.312-2.447-1.981-4.316-2.004c-1.875,0.023-3.312,0.692-4.323,2.004
		c-1,1.302-1.512,3.063-1.522,5.274c0.011,2.211,0.522,3.969,1.522,5.274c1.011,1.306,2.447,1.975,4.323,2.008
		c1.87-0.033,3.3-0.702,4.316-2.008C105.965,38.759,106.477,37.001,106.491,34.79"/>
	<polygon fill-rule="evenodd" clip-rule="evenodd" points="20.625,45.434 18.094,45.434 7.282,31.93 7.282,45.434 3.23,45.434 
		3.23,26.846 1,24.081 6.786,24.081 16.525,36.385 16.525,24.081 20.625,24.081 	"/>
	<path fill-rule="evenodd" clip-rule="evenodd" d="M87.407,34.855c-0.013,2.182-0.495,4.091-1.456,5.734
		c-0.961,1.64-2.319,2.939-4.07,3.864c-1.742,0.931-3.802,1.39-6.177,1.413c-1.302-0.009-2.52-0.101-3.634-0.285
		c-1.119-0.183-2.22-0.406-3.287-0.682V24.481c1.138-0.206,2.233-0.383,3.307-0.512c1.059-0.141,2.276-0.219,3.644-0.219
		c3.661,0.019,6.517,0.967,8.558,2.866C86.338,28.519,87.375,31.264,87.407,34.855 M82.618,34.893
		c-0.006-2.431-0.682-4.294-1.993-5.606c-1.323-1.306-3.234-1.965-5.721-1.981h-1.555V41.94c0.735,0.165,1.526,0.263,2.355,0.289
		c1.453-0.007,2.7-0.334,3.726-0.978c1.027-0.653,1.817-1.521,2.362-2.627C82.339,37.526,82.618,36.28,82.618,34.893"/>
</g>
</svg>
